# xmcd
#
# Track frame offsets:
#   150
#   17040
#   33310
#   50192
#   63673
#   81193
#   96649
#   116502
#   151025
#   167480
#   180027
#   200138
#   215148
#   233782
#   252462
#
# Disc length: 3635 seconds
#
# Revision: 0
# Processed by: cddbd v1.5.2PL0 Copyright (c) Steve Scherf et al.
# Submitted via: GXTranscoder 2.0.1939
#
DISCID=d00e310f
DTITLE=Instrumental Musik - Indian Summer
DYEAR=1900
DGENRE=Country
TTITLE0=Sommerdance
TTITLE1=The sacred Path
TTITLE2=Mothers Day
TTITLE3=Karina
TTITLE4=Lasata
TTITLE5=Gipsy Moth
TTITLE6=Forever Now
TTITLE7=Suit: Lady Evelyn/Lynx Hall /L.Hill
TTITLE8=Highland Dream
TTITLE9=Niddery Lane
TTITLE10=Milenia
TTITLE11=Mandolin Moon
TTITLE12=Stillpoint
TTITLE13=Divinorum
TTITLE14=Autumn Song
EXTD=
EXTT0=
EXTT1=
EXTT2=
EXTT3=
EXTT4=
EXTT5=
EXTT6=
EXTT7=
EXTT8=
EXTT9=
EXTT10=
EXTT11=
EXTT12=
EXTT13=
EXTT14=
PLAYORDER=
